<svg width="26" height="26" viewBox="0 0 26 26" fill="none" xmlns="http://www.w3.org/2000/svg" style="#fff">
<path d="M8.9375 1.625C12.9683 1.625 16.25 4.90674 16.25 8.9375C16.25 10.6577 15.6279 12.2256 14.625 13.4761L22.7119 21.563L21.5693 22.7183L13.4761 14.625C12.2256 15.6279 10.6577 16.25 8.9375 16.25C4.90674 16.25 1.625 12.9683 1.625 8.9375C1.625 4.90674 4.90674 1.625 8.9375 1.625ZM8.9375 3.25C5.78906 3.25 3.25 5.78906 3.25 8.9375C3.25 12.0859 5.78906 14.625 8.9375 14.625C12.0859 14.625 14.625 12.0859 14.625 8.9375C14.625 5.78906 12.0859 3.25 8.9375 3.25Z" fill="white"/>
</svg>
