<?xml version="1.0" encoding="UTF-8" standalone="no"?>
<!DOCTYPE svg PUBLIC "-//W3C//DTD SVG 1.1//EN" "http://www.w3.org/Graphics/SVG/1.1/DTD/svg11.dtd">
<svg width="100%" height="100%" viewBox="0 0 578 578" version="1.1" xmlns="http://www.w3.org/2000/svg" xmlns:xlink="http://www.w3.org/1999/xlink" xml:space="preserve" xmlns:serif="http://www.serif.com/" style="fill-rule:evenodd;clip-rule:evenodd;stroke-linejoin:round;stroke-miterlimit:2;">
    <g transform="matrix(1,0,0,1,-311,-161)">
        <path d="M889,450C889.1,518.203 864.959,584.27 820.91,636.34C819.31,638.24 817.68,640.11 816.02,641.97C796.485,663.94 773.729,682.818 748.53,697.96C742.75,701.43 736.843,704.7 730.81,707.77C730.2,708.08 729.58,708.39 728.97,708.69C728.24,709.06 727.5,709.42 726.76,709.78C711.493,717.253 695.59,723.35 679.24,728C677.54,728.48 675.837,728.947 674.13,729.4C652.623,735.091 630.529,738.275 608.29,738.89C607.13,738.92 605.99,738.94 604.89,738.96C604.5,738.97 604.12,738.98 603.74,738.98C602.49,738.99 601.25,739 600,739C576.564,739.017 553.213,736.187 530.46,730.57C528.18,730.01 525.91,729.42 523.65,728.8C511.746,725.55 500.064,721.532 488.68,716.77C482.68,714.27 476.787,711.573 471,708.68C469.69,708.02 468.38,707.36 467.09,706.68C466.54,706.41 466,706.12 465.46,705.84C434.619,689.562 406.96,667.861 383.81,641.78C382.21,639.99 380.64,638.17 379.09,636.34C335.129,584.218 311,518.184 311,449.998C311,358.19 354.744,271.668 428.68,217.24C430.32,216.03 431.97,214.83 433.64,213.66C433.97,213.43 434.3,213.2 434.63,212.97C463.973,192.416 496.909,177.543 531.73,169.12C533.71,168.63 535.69,168.17 537.69,167.74C575.406,159.49 614.388,158.807 652.37,165.73C654.36,166.1 656.35,166.48 658.33,166.89C692.84,173.968 725.755,187.335 755.43,206.32C756.09,206.74 756.75,207.16 757.41,207.6C758.74,208.46 760.07,209.34 761.38,210.23C841.135,263.849 889.064,353.897 889,450Z" style="fill:rgb(224,229,242);fill-rule:nonzero;"/>
    </g>
    <g transform="matrix(1,0,0,1,-311,-161)">
        <path d="M527,599.51L434.63,607.71L433.64,607.8L433.64,213.66C433.97,213.43 434.3,213.2 434.63,212.97C453.881,199.505 474.705,188.443 496.64,180.03L501.36,245.13L501.79,251.09L506.46,315.65L507.9,335.51L526.83,597.21L527,599.51Z" style="fill:rgb(162,163,184);fill-rule:nonzero;"/>
    </g>
    <g transform="matrix(1,0,0,1,-311,-161)">
        <path d="M755.43,206.32C756.09,206.74 756.75,207.16 757.41,207.6L757.41,607.8L755.43,607.62L664.06,599.51L664.23,597.21L683.16,335.51L684.6,315.65L689.27,251.09L689.7,245.13L694.65,176.86C715.996,184.259 736.397,194.148 755.43,206.32Z" style="fill:rgb(162,163,184);fill-rule:nonzero;"/>
    </g>
    <g transform="matrix(1,0,0,1,-311,-161)">
        <path d="M755.43,206.32L755.43,613.26C755.43,621.07 750.05,627.42 743.43,627.42L446.63,627.42C441.15,627.42 436.5,623.06 435.09,617.11C434.782,615.85 434.628,614.557 434.63,613.26L434.63,212.97C434.3,213.2 433.97,213.43 433.64,213.66C431.97,214.83 430.32,216.03 428.68,217.24L428.68,613.26C428.591,619.19 430.808,624.929 434.86,629.26C436.985,631.487 439.674,633.097 442.64,633.92C443.94,634.274 445.282,634.452 446.63,634.45L743.43,634.45C744.781,634.451 746.126,634.273 747.43,633.92C755.41,631.77 761.38,623.33 761.38,613.26L761.38,210.23C760.07,209.34 758.74,208.46 757.41,207.6C756.75,207.16 756.09,206.74 755.43,206.32Z" style="fill:rgb(162,163,184);fill-rule:nonzero;"/>
    </g>
    <rect x="120.655" y="84.134" width="326.752" height="5.959" style="fill:rgb(162,163,184);"/>
    <g transform="matrix(1,0,0,1,-311,-161)">
        <path d="M531.73,169.12C533.71,168.63 535.69,168.17 537.69,167.74L537.69,329.55L531.73,329.55L531.73,169.12Z" style="fill:rgb(162,163,184);fill-rule:nonzero;"/>
    </g>
    <g transform="matrix(1,0,0,1,-311,-161)">
        <path d="M652.37,165.73C654.36,166.1 656.35,166.48 658.33,166.89L658.33,329.55L652.37,329.55L652.37,165.73Z" style="fill:rgb(162,163,184);fill-rule:nonzero;"/>
    </g>
    <g transform="matrix(1,0,0,1,-311,-161)">
        <path d="M795.65,597.21L404.34,597.21C389.627,597.21 377.52,609.317 377.52,624.03C377.52,638.743 389.627,650.85 404.34,650.85L795.65,650.85C803.351,650.852 810.69,647.529 815.77,641.74C816.907,640.446 817.919,639.046 818.79,637.56C819.465,636.42 820.05,635.23 820.54,634C821.815,630.825 822.47,627.435 822.47,624.013C822.47,609.309 810.371,597.21 795.667,597.21C795.661,597.21 795.656,597.21 795.65,597.21Z" style="fill:rgb(204,204,204);fill-rule:nonzero;"/>
    </g>
    <rect x="122.642" y="154.649" width="324.766" height="19.863" style="fill:rgb(162,163,184);"/>
    <path d="M282.045,148.69L288.004,148.69C293.997,148.69 298.929,153.622 298.929,159.615L271.12,159.615C271.12,153.622 276.052,148.69 282.045,148.69Z" style="fill:rgb(162,163,184);fill-rule:nonzero;"/>
    <g transform="matrix(1,0,0,1,-311,-161)">
        <path d="M820.91,636.34C812.223,646.633 802.827,656.307 792.79,665.29L407.21,665.29C397.173,656.307 387.777,646.633 379.09,636.34L820.91,636.34Z" style="fill:rgb(63,61,86);fill-rule:nonzero;"/>
    </g>
    <g transform="matrix(1,0,0,1,-311,-161)">
        <path d="M632.28,536.07L567.36,536.07C567.01,536.066 566.662,536.12 566.33,536.23C564.887,536.676 563.898,538.02 563.9,539.53L563.9,642.09L635.75,642.09L635.75,539.53C635.748,537.631 634.185,536.07 632.287,536.07C632.284,536.07 632.282,536.07 632.28,536.07ZM607.71,586.67C607.712,588.333 607.164,589.951 606.15,591.27C604.702,593.185 602.436,594.313 600.035,594.313C595.838,594.313 592.382,590.867 592.37,586.67L592.37,574.77C592.409,570.589 595.859,567.171 600.04,567.171C604.221,567.171 607.671,570.589 607.71,574.77L607.71,586.67Z" style="fill:rgb(47,46,65);fill-rule:nonzero;"/>
    </g>
    <g transform="matrix(1,0,0,1,-311,-161)">
        <path d="M563.68,638.81L563.68,648.7C563.68,649.761 564.549,650.635 565.61,650.64L634.04,650.64C635.099,650.631 635.967,649.759 635.97,648.7L635.97,638.81L563.68,638.81Z" style="fill:rgb(63,61,86);fill-rule:nonzero;"/>
    </g>
    <g transform="matrix(1,0,0,1,-311,-161)">
        <path d="M739.78,376.02L462.28,376.02C457.349,376.026 453.292,380.079 453.28,385.01L453.28,572.27C453.284,577.206 457.344,581.266 462.28,581.27L739.78,581.27C744.716,581.266 748.776,577.206 748.78,572.27L748.78,385.01C748.768,380.079 744.711,376.026 739.78,376.02Z" style="fill:rgb(63,61,86);fill-rule:nonzero;"/>
    </g>
    <g transform="matrix(1,0,0,1,-311,-161)">
        <path d="M737.46,382.52L464.59,382.52C461.95,382.526 459.78,384.7 459.78,387.34L459.78,569.96C459.785,572.597 461.953,574.765 464.59,574.77L737.46,574.77C740.097,574.765 742.265,572.597 742.27,569.96L742.27,387.34C742.27,384.7 740.1,382.526 737.46,382.52Z" style="fill:rgb(141,158,201);fill-rule:nonzero;"/>
    </g>
    <g transform="matrix(1,0,0,1,-311,-161)">
        <path d="M687.24,650.48L684.72,638.51C684.508,637.519 683.807,636.701 682.86,636.34C682.522,636.207 682.163,636.14 681.8,636.14L524.49,636.14C524.127,636.14 523.768,636.208 523.43,636.34C522.483,636.701 521.782,637.519 521.57,638.51L519.05,650.48C519.008,650.682 518.986,650.887 518.986,651.093C518.986,652.73 520.333,654.078 521.97,654.08L684.31,654.08C685.212,654.085 686.068,653.675 686.63,652.97C687.197,652.274 687.421,651.359 687.24,650.48Z" style="fill:rgb(47,46,65);fill-rule:nonzero;"/>
    </g>
    <path d="M219.643,477.784C219.643,477.515 219.424,477.296 219.155,477.296L215.131,477.296C214.862,477.296 214.643,477.515 214.643,477.784L214.643,479.808C214.643,480.077 214.862,480.296 215.131,480.296L219.155,480.296C219.424,480.296 219.643,480.077 219.643,479.808L219.643,477.784Z" style="fill:rgb(63,61,86);"/>
    <path d="M229.643,477.784C229.643,477.515 229.424,477.296 229.155,477.296L225.131,477.296C224.862,477.296 224.643,477.515 224.643,477.784L224.643,479.808C224.643,480.077 224.862,480.296 225.131,480.296L229.155,480.296C229.424,480.296 229.643,480.077 229.643,479.808L229.643,477.784Z" style="fill:rgb(63,61,86);"/>
    <path d="M239.643,477.784C239.643,477.515 239.424,477.296 239.155,477.296L235.131,477.296C234.862,477.296 234.643,477.515 234.643,477.784L234.643,479.808C234.643,480.077 234.862,480.296 235.131,480.296L239.155,480.296C239.424,480.296 239.643,480.077 239.643,479.808L239.643,477.784Z" style="fill:rgb(63,61,86);"/>
    <path d="M249.643,477.784C249.643,477.515 249.424,477.296 249.155,477.296L245.131,477.296C244.862,477.296 244.643,477.515 244.643,477.784L244.643,479.808C244.643,480.077 244.862,480.296 245.131,480.296L249.155,480.296C249.424,480.296 249.643,480.077 249.643,479.808L249.643,477.784Z" style="fill:rgb(63,61,86);"/>
    <path d="M259.643,477.784C259.643,477.515 259.424,477.296 259.155,477.296L255.131,477.296C254.862,477.296 254.643,477.515 254.643,477.784L254.643,479.808C254.643,480.077 254.862,480.296 255.131,480.296L259.155,480.296C259.424,480.296 259.643,480.077 259.643,479.808L259.643,477.784Z" style="fill:rgb(63,61,86);"/>
    <path d="M269.643,477.784C269.643,477.515 269.424,477.296 269.155,477.296L265.131,477.296C264.862,477.296 264.643,477.515 264.643,477.784L264.643,479.808C264.643,480.077 264.862,480.296 265.131,480.296L269.155,480.296C269.424,480.296 269.643,480.077 269.643,479.808L269.643,477.784Z" style="fill:rgb(63,61,86);"/>
    <path d="M279.643,477.784C279.643,477.515 279.424,477.296 279.155,477.296L275.131,477.296C274.862,477.296 274.643,477.515 274.643,477.784L274.643,479.808C274.643,480.077 274.862,480.296 275.131,480.296L279.155,480.296C279.424,480.296 279.643,480.077 279.643,479.808L279.643,477.784Z" style="fill:rgb(63,61,86);"/>
    <path d="M289.643,477.784C289.643,477.515 289.424,477.296 289.155,477.296L285.131,477.296C284.862,477.296 284.643,477.515 284.643,477.784L284.643,479.808C284.643,480.077 284.862,480.296 285.131,480.296L289.155,480.296C289.424,480.296 289.643,480.077 289.643,479.808L289.643,477.784Z" style="fill:rgb(63,61,86);"/>
    <path d="M299.643,477.784C299.643,477.515 299.424,477.296 299.155,477.296L295.131,477.296C294.862,477.296 294.643,477.515 294.643,477.784L294.643,479.808C294.643,480.077 294.862,480.296 295.131,480.296L299.155,480.296C299.424,480.296 299.643,480.077 299.643,479.808L299.643,477.784Z" style="fill:rgb(63,61,86);"/>
    <path d="M309.643,477.784C309.643,477.515 309.424,477.296 309.155,477.296L305.131,477.296C304.862,477.296 304.643,477.515 304.643,477.784L304.643,479.808C304.643,480.077 304.862,480.296 305.131,480.296L309.155,480.296C309.424,480.296 309.643,480.077 309.643,479.808L309.643,477.784Z" style="fill:rgb(63,61,86);"/>
    <path d="M319.643,477.784C319.643,477.515 319.424,477.296 319.155,477.296L315.131,477.296C314.862,477.296 314.643,477.515 314.643,477.784L314.643,479.808C314.643,480.077 314.862,480.296 315.131,480.296L319.155,480.296C319.424,480.296 319.643,480.077 319.643,479.808L319.643,477.784Z" style="fill:rgb(63,61,86);"/>
    <path d="M329.643,477.784C329.643,477.515 329.424,477.296 329.155,477.296L325.131,477.296C324.862,477.296 324.643,477.515 324.643,477.784L324.643,479.808C324.643,480.077 324.862,480.296 325.131,480.296L329.155,480.296C329.424,480.296 329.643,480.077 329.643,479.808L329.643,477.784Z" style="fill:rgb(63,61,86);"/>
    <path d="M339.643,477.784C339.643,477.515 339.424,477.296 339.155,477.296L335.131,477.296C334.862,477.296 334.643,477.515 334.643,477.784L334.643,479.808C334.643,480.077 334.862,480.296 335.131,480.296L339.155,480.296C339.424,480.296 339.643,480.077 339.643,479.808L339.643,477.784Z" style="fill:rgb(63,61,86);"/>
    <path d="M349.643,477.784C349.643,477.515 349.424,477.296 349.155,477.296L345.131,477.296C344.862,477.296 344.643,477.515 344.643,477.784L344.643,479.808C344.643,480.077 344.862,480.296 345.131,480.296L349.155,480.296C349.424,480.296 349.643,480.077 349.643,479.808L349.643,477.784Z" style="fill:rgb(63,61,86);"/>
    <path d="M359.643,477.784C359.643,477.515 359.424,477.296 359.155,477.296L355.131,477.296C354.862,477.296 354.643,477.515 354.643,477.784L354.643,479.808C354.643,480.077 354.862,480.296 355.131,480.296L359.155,480.296C359.424,480.296 359.643,480.077 359.643,479.808L359.643,477.784Z" style="fill:rgb(63,61,86);"/>
    <path d="M369.643,477.784C369.643,477.515 369.424,477.296 369.155,477.296L365.131,477.296C364.862,477.296 364.643,477.515 364.643,477.784L364.643,479.808C364.643,480.077 364.862,480.296 365.131,480.296L369.155,480.296C369.424,480.296 369.643,480.077 369.643,479.808L369.643,477.784Z" style="fill:rgb(63,61,86);"/>
    <path d="M219.525,482.784C219.525,482.515 219.306,482.296 219.037,482.296L215.013,482.296C214.744,482.296 214.525,482.515 214.525,482.784L214.525,484.808C214.525,485.077 214.744,485.296 215.013,485.296L219.037,485.296C219.306,485.296 219.525,485.077 219.525,484.808L219.525,482.784Z" style="fill:rgb(63,61,86);"/>
    <path d="M229.525,482.784C229.525,482.515 229.306,482.296 229.037,482.296L225.013,482.296C224.744,482.296 224.525,482.515 224.525,482.784L224.525,484.808C224.525,485.077 224.744,485.296 225.013,485.296L229.037,485.296C229.306,485.296 229.525,485.077 229.525,484.808L229.525,482.784Z" style="fill:rgb(63,61,86);"/>
    <path d="M239.525,482.784C239.525,482.515 239.306,482.296 239.037,482.296L235.013,482.296C234.744,482.296 234.525,482.515 234.525,482.784L234.525,484.808C234.525,485.077 234.744,485.296 235.013,485.296L239.037,485.296C239.306,485.296 239.525,485.077 239.525,484.808L239.525,482.784Z" style="fill:rgb(63,61,86);"/>
    <path d="M249.525,482.784C249.525,482.515 249.306,482.296 249.037,482.296L245.013,482.296C244.744,482.296 244.525,482.515 244.525,482.784L244.525,484.808C244.525,485.077 244.744,485.296 245.013,485.296L249.037,485.296C249.306,485.296 249.525,485.077 249.525,484.808L249.525,482.784Z" style="fill:rgb(63,61,86);"/>
    <path d="M259.525,482.784C259.525,482.515 259.306,482.296 259.037,482.296L255.013,482.296C254.744,482.296 254.525,482.515 254.525,482.784L254.525,484.808C254.525,485.077 254.744,485.296 255.013,485.296L259.037,485.296C259.306,485.296 259.525,485.077 259.525,484.808L259.525,482.784Z" style="fill:rgb(63,61,86);"/>
    <path d="M269.525,482.784C269.525,482.515 269.306,482.296 269.037,482.296L265.013,482.296C264.744,482.296 264.525,482.515 264.525,482.784L264.525,484.808C264.525,485.077 264.744,485.296 265.013,485.296L269.037,485.296C269.306,485.296 269.525,485.077 269.525,484.808L269.525,482.784Z" style="fill:rgb(63,61,86);"/>
    <path d="M279.525,482.784C279.525,482.515 279.306,482.296 279.037,482.296L275.013,482.296C274.744,482.296 274.525,482.515 274.525,482.784L274.525,484.808C274.525,485.077 274.744,485.296 275.013,485.296L279.037,485.296C279.306,485.296 279.525,485.077 279.525,484.808L279.525,482.784Z" style="fill:rgb(63,61,86);"/>
    <path d="M289.525,482.784C289.525,482.515 289.306,482.296 289.037,482.296L285.013,482.296C284.744,482.296 284.525,482.515 284.525,482.784L284.525,484.808C284.525,485.077 284.744,485.296 285.013,485.296L289.037,485.296C289.306,485.296 289.525,485.077 289.525,484.808L289.525,482.784Z" style="fill:rgb(63,61,86);"/>
    <path d="M299.525,482.784C299.525,482.515 299.306,482.296 299.037,482.296L295.013,482.296C294.744,482.296 294.525,482.515 294.525,482.784L294.525,484.808C294.525,485.077 294.744,485.296 295.013,485.296L299.037,485.296C299.306,485.296 299.525,485.077 299.525,484.808L299.525,482.784Z" style="fill:rgb(63,61,86);"/>
    <path d="M309.525,482.784C309.525,482.515 309.306,482.296 309.037,482.296L305.013,482.296C304.744,482.296 304.525,482.515 304.525,482.784L304.525,484.808C304.525,485.077 304.744,485.296 305.013,485.296L309.037,485.296C309.306,485.296 309.525,485.077 309.525,484.808L309.525,482.784Z" style="fill:rgb(63,61,86);"/>
    <path d="M319.525,482.784C319.525,482.515 319.306,482.296 319.037,482.296L315.013,482.296C314.744,482.296 314.525,482.515 314.525,482.784L314.525,484.808C314.525,485.077 314.744,485.296 315.013,485.296L319.037,485.296C319.306,485.296 319.525,485.077 319.525,484.808L319.525,482.784Z" style="fill:rgb(63,61,86);"/>
    <path d="M329.525,482.784C329.525,482.515 329.306,482.296 329.037,482.296L325.013,482.296C324.744,482.296 324.525,482.515 324.525,482.784L324.525,484.808C324.525,485.077 324.744,485.296 325.013,485.296L329.037,485.296C329.306,485.296 329.525,485.077 329.525,484.808L329.525,482.784Z" style="fill:rgb(63,61,86);"/>
    <path d="M339.525,482.784C339.525,482.515 339.306,482.296 339.037,482.296L335.013,482.296C334.744,482.296 334.525,482.515 334.525,482.784L334.525,484.808C334.525,485.077 334.744,485.296 335.013,485.296L339.037,485.296C339.306,485.296 339.525,485.077 339.525,484.808L339.525,482.784Z" style="fill:rgb(63,61,86);"/>
    <path d="M349.525,482.784C349.525,482.515 349.306,482.296 349.037,482.296L345.013,482.296C344.744,482.296 344.525,482.515 344.525,482.784L344.525,484.808C344.525,485.077 344.744,485.296 345.013,485.296L349.037,485.296C349.306,485.296 349.525,485.077 349.525,484.808L349.525,482.784Z" style="fill:rgb(63,61,86);"/>
    <path d="M359.525,482.784C359.525,482.515 359.306,482.296 359.037,482.296L355.013,482.296C354.744,482.296 354.525,482.515 354.525,482.784L354.525,484.808C354.525,485.077 354.744,485.296 355.013,485.296L359.037,485.296C359.306,485.296 359.525,485.077 359.525,484.808L359.525,482.784Z" style="fill:rgb(63,61,86);"/>
    <path d="M369.525,482.784C369.525,482.515 369.306,482.296 369.037,482.296L365.013,482.296C364.744,482.296 364.525,482.515 364.525,482.784L364.525,484.808C364.525,485.077 364.744,485.296 365.013,485.296L369.037,485.296C369.306,485.296 369.525,485.077 369.525,484.808L369.525,482.784Z" style="fill:rgb(63,61,86);"/>
    <path d="M302.525,488.784C302.525,488.515 302.306,488.296 302.037,488.296L263.013,488.296C262.744,488.296 262.525,488.515 262.525,488.784L262.525,490.808C262.525,491.077 262.744,491.296 263.013,491.296L302.037,491.296C302.306,491.296 302.525,491.077 302.525,490.808L302.525,488.784Z" style="fill:rgb(63,61,86);"/>
    <g transform="matrix(1,0,0,1,-311,-161)">
        <path d="M723.748,407.677L468.425,407.677C467.876,407.665 467.431,407.21 467.431,406.661C467.431,406.113 467.876,405.658 468.425,405.646L723.748,405.646C724.297,405.658 724.741,406.113 724.741,406.661C724.741,407.21 724.297,407.665 723.748,407.677Z" style="fill:rgb(63,61,86);fill-rule:nonzero;"/>
    </g>
    <ellipse cx="174.805" cy="233.379" rx="5.95" ry="6.083" style="fill:rgb(63,61,86);"/>
    <ellipse cx="195.361" cy="233.379" rx="5.95" ry="6.083" style="fill:rgb(63,61,86);"/>
    <ellipse cx="215.917" cy="233.379" rx="5.95" ry="6.083" style="fill:rgb(63,61,86);"/>
    <g transform="matrix(1,0,0,1,-311,-161)">
        <path d="M711.37,389.8L696.77,389.8C696.174,389.814 695.69,390.308 695.69,390.905C695.69,391.502 696.174,391.996 696.77,392.01L711.37,392.01C711.97,392.002 712.46,391.505 712.46,390.905C712.46,390.305 711.97,389.808 711.37,389.8Z" style="fill:rgb(63,61,86);fill-rule:nonzero;"/>
    </g>
    <g transform="matrix(1,0,0,1,-311,-161)">
        <path d="M711.37,393.95L696.77,393.95C696.173,393.963 695.689,394.458 695.689,395.055C695.689,395.652 696.173,396.147 696.77,396.16L711.37,396.16C711.971,396.153 712.462,395.656 712.462,395.055C712.462,394.454 711.971,393.957 711.37,393.95Z" style="fill:rgb(63,61,86);fill-rule:nonzero;"/>
    </g>
    <g transform="matrix(1,0,0,1,-311,-161)">
        <path d="M711.37,398.1L696.77,398.1C696.174,398.114 695.69,398.608 695.69,399.205C695.69,399.802 696.174,400.296 696.77,400.31L711.37,400.31C711.97,400.302 712.46,399.805 712.46,399.205C712.46,398.605 711.97,398.108 711.37,398.1Z" style="fill:rgb(63,61,86);fill-rule:nonzero;"/>
    </g>
    <path d="M182.32,273.153C182.32,271.564 181.03,270.273 179.44,270.273L174.194,270.273C172.605,270.273 171.314,271.564 171.314,273.153C171.314,274.743 172.605,276.033 174.194,276.033L179.44,276.033C181.03,276.033 182.32,274.743 182.32,273.153Z" style="fill:rgb(230,230,230);"/>
    <path d="M242.32,273.153C242.32,271.564 241.03,270.273 239.44,270.273L234.194,270.273C232.605,270.273 231.314,271.564 231.314,273.153C231.314,274.743 232.605,276.033 234.194,276.033L239.44,276.033C241.03,276.033 242.32,274.743 242.32,273.153Z" style="fill:rgb(230,230,230);"/>
    <path d="M259.32,273.153C259.32,271.564 258.03,270.273 256.44,270.273L251.194,270.273C249.605,270.273 248.314,271.564 248.314,273.153C248.314,274.743 249.605,276.033 251.194,276.033L256.44,276.033C258.03,276.033 259.32,274.743 259.32,273.153Z" style="fill:rgb(230,230,230);"/>
    <path d="M226,272.673C226,271.084 224.71,269.793 223.12,269.793L190.514,269.793C188.925,269.793 187.634,271.084 187.634,272.673C187.634,274.263 188.925,275.553 190.514,275.553L223.12,275.553C224.71,275.553 226,274.263 226,272.673Z" style="fill:rgb(230,230,230);"/>
    <path d="M306,272.673C306,271.084 304.71,269.793 303.12,269.793L270.514,269.793C268.925,269.793 267.634,271.084 267.634,272.673C267.634,274.263 268.925,275.553 270.514,275.553L303.12,275.553C304.71,275.553 306,274.263 306,272.673Z" style="fill:rgb(230,230,230);"/>
    <path d="M198.32,286.153C198.32,284.564 197.03,283.273 195.44,283.273L190.194,283.273C188.605,283.273 187.314,284.564 187.314,286.153C187.314,287.743 188.605,289.033 190.194,289.033L195.44,289.033C197.03,289.033 198.32,287.743 198.32,286.153Z" style="fill:rgb(230,230,230);"/>
    <path d="M258.32,286.153C258.32,284.564 257.03,283.273 255.44,283.273L250.194,283.273C248.605,283.273 247.314,284.564 247.314,286.153C247.314,287.743 248.605,289.033 250.194,289.033L255.44,289.033C257.03,289.033 258.32,287.743 258.32,286.153Z" style="fill:rgb(230,230,230);"/>
    <path d="M275.32,286.153C275.32,284.564 274.03,283.273 272.44,283.273L267.194,283.273C265.605,283.273 264.314,284.564 264.314,286.153C264.314,287.743 265.605,289.033 267.194,289.033L272.44,289.033C274.03,289.033 275.32,287.743 275.32,286.153Z" style="fill:rgb(230,230,230);"/>
    <path d="M242,285.673C242,284.084 240.71,282.793 239.12,282.793L206.514,282.793C204.925,282.793 203.634,284.084 203.634,285.673C203.634,287.263 204.925,288.553 206.514,288.553L239.12,288.553C240.71,288.553 242,287.263 242,285.673Z" style="fill:rgb(230,230,230);"/>
    <path d="M322,285.673C322,284.084 320.71,282.793 319.12,282.793L286.514,282.793C284.925,282.793 283.634,284.084 283.634,285.673C283.634,287.263 284.925,288.553 286.514,288.553L319.12,288.553C320.71,288.553 322,287.263 322,285.673Z" style="fill:rgb(230,230,230);"/>
    <path d="M214.32,299.153C214.32,297.564 213.03,296.273 211.44,296.273L206.194,296.273C204.605,296.273 203.314,297.564 203.314,299.153C203.314,300.743 204.605,302.033 206.194,302.033L211.44,302.033C213.03,302.033 214.32,300.743 214.32,299.153Z" style="fill:rgb(230,230,230);"/>
    <path d="M274.32,299.153C274.32,297.564 273.03,296.273 271.44,296.273L266.194,296.273C264.605,296.273 263.314,297.564 263.314,299.153C263.314,300.743 264.605,302.033 266.194,302.033L271.44,302.033C273.03,302.033 274.32,300.743 274.32,299.153Z" style="fill:rgb(230,230,230);"/>
    <path d="M291.32,299.153C291.32,297.564 290.03,296.273 288.44,296.273L283.194,296.273C281.605,296.273 280.314,297.564 280.314,299.153C280.314,300.743 281.605,302.033 283.194,302.033L288.44,302.033C290.03,302.033 291.32,300.743 291.32,299.153Z" style="fill:rgb(230,230,230);"/>
    <path d="M258,298.673C258,297.084 256.71,295.793 255.12,295.793L222.514,295.793C220.925,295.793 219.634,297.084 219.634,298.673C219.634,300.263 220.925,301.553 222.514,301.553L255.12,301.553C256.71,301.553 258,300.263 258,298.673Z" style="fill:rgb(230,230,230);"/>
    <path d="M338,298.673C338,297.084 336.71,295.793 335.12,295.793L302.514,295.793C300.925,295.793 299.634,297.084 299.634,298.673C299.634,300.263 300.925,301.553 302.514,301.553L335.12,301.553C336.71,301.553 338,300.263 338,298.673Z" style="fill:rgb(230,230,230);"/>
    <path d="M230.32,312.153C230.32,310.564 229.03,309.273 227.44,309.273L222.194,309.273C220.605,309.273 219.314,310.564 219.314,312.153C219.314,313.743 220.605,315.033 222.194,315.033L227.44,315.033C229.03,315.033 230.32,313.743 230.32,312.153Z" style="fill:rgb(230,230,230);"/>
    <path d="M290.32,312.153C290.32,310.564 289.03,309.273 287.44,309.273L282.194,309.273C280.605,309.273 279.314,310.564 279.314,312.153C279.314,313.743 280.605,315.033 282.194,315.033L287.44,315.033C289.03,315.033 290.32,313.743 290.32,312.153Z" style="fill:rgb(230,230,230);"/>
    <path d="M307.32,312.153C307.32,310.564 306.03,309.273 304.44,309.273L299.194,309.273C297.605,309.273 296.314,310.564 296.314,312.153C296.314,313.743 297.605,315.033 299.194,315.033L304.44,315.033C306.03,315.033 307.32,313.743 307.32,312.153Z" style="fill:rgb(230,230,230);"/>
    <path d="M274,311.673C274,310.084 272.71,308.793 271.12,308.793L238.514,308.793C236.925,308.793 235.634,310.084 235.634,311.673C235.634,313.263 236.925,314.553 238.514,314.553L271.12,314.553C272.71,314.553 274,313.263 274,311.673Z" style="fill:rgb(230,230,230);"/>
    <path d="M242.32,363.847C242.32,362.257 241.03,360.967 239.44,360.967L234.194,360.967C232.605,360.967 231.314,362.257 231.314,363.847C231.314,365.436 232.605,366.727 234.194,366.727L239.44,366.727C241.03,366.727 242.32,365.436 242.32,363.847Z" style="fill:rgb(230,230,230);"/>
    <path d="M259.32,363.847C259.32,362.257 258.03,360.967 256.44,360.967L251.194,360.967C249.605,360.967 248.314,362.257 248.314,363.847C248.314,365.436 249.605,366.727 251.194,366.727L256.44,366.727C258.03,366.727 259.32,365.436 259.32,363.847Z" style="fill:rgb(230,230,230);"/>
    <path d="M306,364.327C306,362.737 304.71,361.447 303.12,361.447L270.514,361.447C268.925,361.447 267.634,362.737 267.634,364.327C267.634,365.916 268.925,367.207 270.514,367.207L303.12,367.207C304.71,367.207 306,365.916 306,364.327Z" style="fill:rgb(230,230,230);"/>
    <path d="M182.32,363.847C182.32,362.257 181.03,360.967 179.44,360.967L174.194,360.967C172.605,360.967 171.314,362.257 171.314,363.847C171.314,365.436 172.605,366.727 174.194,366.727L179.44,366.727C181.03,366.727 182.32,365.436 182.32,363.847Z" style="fill:rgb(230,230,230);"/>
    <path d="M226,364.327C226,362.737 224.71,361.447 223.12,361.447L190.514,361.447C188.925,361.447 187.634,362.737 187.634,364.327C187.634,365.916 188.925,367.207 190.514,367.207L223.12,367.207C224.71,367.207 226,365.916 226,364.327Z" style="fill:rgb(230,230,230);"/>
    <path d="M198.32,350.847C198.32,349.257 197.03,347.967 195.44,347.967L190.194,347.967C188.605,347.967 187.314,349.257 187.314,350.847C187.314,352.436 188.605,353.727 190.194,353.727L195.44,353.727C197.03,353.727 198.32,352.436 198.32,350.847Z" style="fill:rgb(230,230,230);"/>
    <path d="M258.32,350.847C258.32,349.257 257.03,347.967 255.44,347.967L250.194,347.967C248.605,347.967 247.314,349.257 247.314,350.847C247.314,352.436 248.605,353.727 250.194,353.727L255.44,353.727C257.03,353.727 258.32,352.436 258.32,350.847Z" style="fill:rgb(230,230,230);"/>
    <path d="M275.32,350.847C275.32,349.257 274.03,347.967 272.44,347.967L267.194,347.967C265.605,347.967 264.314,349.257 264.314,350.847C264.314,352.436 265.605,353.727 267.194,353.727L272.44,353.727C274.03,353.727 275.32,352.436 275.32,350.847Z" style="fill:rgb(230,230,230);"/>
    <path d="M242,351.327C242,349.737 240.71,348.447 239.12,348.447L206.514,348.447C204.925,348.447 203.634,349.737 203.634,351.327C203.634,352.916 204.925,354.207 206.514,354.207L239.12,354.207C240.71,354.207 242,352.916 242,351.327Z" style="fill:rgb(230,230,230);"/>
    <path d="M214.32,337.847C214.32,336.257 213.03,334.967 211.44,334.967L206.194,334.967C204.605,334.967 203.314,336.257 203.314,337.847C203.314,339.436 204.605,340.727 206.194,340.727L211.44,340.727C213.03,340.727 214.32,339.436 214.32,337.847Z" style="fill:rgb(230,230,230);"/>
    <path d="M274.32,337.847C274.32,336.257 273.03,334.967 271.44,334.967L266.194,334.967C264.605,334.967 263.314,336.257 263.314,337.847C263.314,339.436 264.605,340.727 266.194,340.727L271.44,340.727C273.03,340.727 274.32,339.436 274.32,337.847Z" style="fill:rgb(230,230,230);"/>
    <path d="M291.32,337.847C291.32,336.257 290.03,334.967 288.44,334.967L283.194,334.967C281.605,334.967 280.314,336.257 280.314,337.847C280.314,339.436 281.605,340.727 283.194,340.727L288.44,340.727C290.03,340.727 291.32,339.436 291.32,337.847Z" style="fill:rgb(230,230,230);"/>
    <path d="M258,338.327C258,336.737 256.71,335.447 255.12,335.447L222.514,335.447C220.925,335.447 219.634,336.737 219.634,338.327C219.634,339.916 220.925,341.207 222.514,341.207L255.12,341.207C256.71,341.207 258,339.916 258,338.327Z" style="fill:rgb(230,230,230);"/>
    <path d="M230.32,324.847C230.32,323.257 229.03,321.967 227.44,321.967L222.194,321.967C220.605,321.967 219.314,323.257 219.314,324.847C219.314,326.436 220.605,327.727 222.194,327.727L227.44,327.727C229.03,327.727 230.32,326.436 230.32,324.847Z" style="fill:rgb(230,230,230);"/>
    <path d="M290.32,324.847C290.32,323.257 289.03,321.967 287.44,321.967L282.194,321.967C280.605,321.967 279.314,323.257 279.314,324.847C279.314,326.436 280.605,327.727 282.194,327.727L287.44,327.727C289.03,327.727 290.32,326.436 290.32,324.847Z" style="fill:rgb(230,230,230);"/>
    <path d="M307.32,324.847C307.32,323.257 306.03,321.967 304.44,321.967L299.194,321.967C297.605,321.967 296.314,323.257 296.314,324.847C296.314,326.436 297.605,327.727 299.194,327.727L304.44,327.727C306.03,327.727 307.32,326.436 307.32,324.847Z" style="fill:rgb(230,230,230);"/>
    <path d="M274,325.327C274,323.737 272.71,322.447 271.12,322.447L238.514,322.447C236.925,322.447 235.634,323.737 235.634,325.327C235.634,326.916 236.925,328.207 238.514,328.207L271.12,328.207C272.71,328.207 274,326.916 274,325.327Z" style="fill:rgb(230,230,230);"/>
    <g transform="matrix(1,0,0,1,-311,-161)">
        <path d="M726.81,709.77C726.2,710.08 725.58,710.39 724.97,710.69C709.17,718.59 696.53,723.08 679.24,728C677.78,711.7 676.37,683.05 675,665.29C674.64,660.68 674.28,656.81 673.93,654.08C673.842,652.629 673.545,651.197 673.05,649.83L673.11,654.08L673.26,665.29L674.13,729.4C652.623,735.091 630.529,738.275 608.29,738.89C607.13,738.92 605.99,738.94 604.89,738.96C604.5,738.97 604.12,738.98 603.74,738.98C602.49,738.99 601.25,739 600,739C576.564,739.017 553.213,736.187 530.46,730.57C530.95,714.44 531.44,686.11 531.91,665.29C532.01,661.22 532.1,657.43 532.2,654.08C532.39,646.92 532.59,641.76 532.78,640.03C532.612,640.337 532.481,640.662 532.39,641C531.464,645.312 530.832,649.682 530.5,654.08C530.15,657.43 529.8,661.22 529.45,665.29C527.59,686.92 525.65,716.33 523.65,728.8C511.746,725.55 500.064,721.532 488.68,716.77C482.68,714.27 476.787,711.573 471,708.68C472.1,701.48 473.25,693.41 474.43,685.04C475.35,678.55 476.3,671.88 477.27,665.29C478.77,655.11 480.31,645.13 481.87,636.34C484.15,623.5 486.49,613.18 488.81,608.44C491.01,603.94 493.21,599.5 495.34,595.25C496.08,593.76 496.82,592.29 497.54,590.86C497.71,590.52 497.88,590.19 498.05,589.86C499.58,586.85 501.06,583.97 502.47,581.27C503.68,578.96 504.83,576.78 505.92,574.77C508.56,569.89 510.8,566 512.46,563.54C519.399,553.015 529.734,545.175 541.74,541.33L542.04,541.25L542.25,541.34L562.7,535.06L565.69,534.14L567.7,533.52L574.78,528.13L578.63,525.2L582.24,522.45L589.3,517.08L633.01,519.77L641.52,540.26L660.58,547.23L660.91,547.08L661.2,546.96L661.5,547.04C673.504,550.889 683.838,558.728 690.78,569.25C691.72,570.66 692.86,572.52 694.15,574.77C695.25,576.68 696.45,578.86 697.75,581.27C699.6,584.7 701.62,588.57 703.76,592.76C704.23,593.68 704.71,594.62 705.19,595.57C706.08,597.33 706.983,599.127 707.9,600.96C710.03,605.21 712.23,609.65 714.43,614.16C716.34,618.07 718.27,626.11 720.17,636.34C721.74,644.84 723.3,654.86 724.81,665.29C726.79,678.81 724.68,695 726.47,707.44C726.58,708.23 726.7,709 726.81,709.77Z" style="fill:rgb(63,61,86);fill-rule:nonzero;"/>
    </g>
    <circle cx="289.615" cy="288.888" r="50.836" style="fill:rgb(221,156,105);"/>
    <g transform="matrix(1,0,0,1,-311,-161)">
        <path d="M684.45,382.52C683.445,380.174 682.108,377.985 680.48,376.02C672.76,366.59 658.72,362.44 644.31,373.6C641.536,372.98 638.644,373.147 635.96,374.08C634.693,374.539 633.505,375.194 632.44,376.02C630.258,377.722 628.556,379.962 627.5,382.52C626.936,383.871 626.565,385.295 626.4,386.75C622.838,384.899 619.068,383.479 615.17,382.52C605.606,380.141 595.604,380.141 586.04,382.52C582.975,383.295 580.024,384.465 577.26,386C572.58,388.7 569.89,392.11 569.41,395.9C562.66,396.28 555.64,399.83 550.41,405.65C549.82,406.3 549.25,406.98 548.72,407.68C544.323,413.434 541.958,420.488 542,427.73L542,429L543.27,429C546.75,428.997 550.197,429.669 553.42,430.98C555.509,431.819 557.487,432.91 559.31,434.23C560.503,435.076 561.629,436.012 562.68,437.03C565.116,439.388 567.179,442.102 568.8,445.08C572.954,452.603 574.395,461.331 572.88,469.79C572.532,471.748 572.024,473.675 571.36,475.55C570.415,478.225 569.171,480.785 567.65,483.18C567.59,483.27 567.54,483.36 567.48,483.45C566.81,484.52 566.17,485.61 565.57,486.71C565.12,487.53 564.7,488.37 564.31,489.21C563.17,491.548 562.207,493.968 561.43,496.45C560.038,500.84 559.218,505.391 558.99,509.99C558.92,511.21 558.9,512.43 558.94,513.65C558.999,516.795 559.344,519.928 559.97,523.01C560.06,523.43 560.15,523.84 560.24,524.26L560.97,527.45L562.7,535.06L563.9,540.3L565.01,545.16L566.65,542.81C567.21,542.01 568.62,539.55 570.51,536.07C571.76,533.8 573.21,531.09 574.78,528.13C576.97,523.98 579.37,519.35 581.72,514.73C582.67,512.86 583.61,511 584.52,509.18C586.24,505.73 587.86,502.4 589.25,499.44C590.53,496.71 591.62,494.29 592.43,492.35C592.68,493.62 592.89,494.91 593.05,496.21C593.23,497.53 593.36,498.87 593.43,500.21C593.45,500.41 593.46,500.62 593.47,500.82L593.51,501.64L593.52,501.88L594.58,502.02C600.694,502.675 606.857,502.722 612.98,502.16L612.99,502.16C621.101,501.549 629.059,499.621 636.55,496.45C640.805,494.604 644.777,492.167 648.35,489.21C650.02,487.828 651.578,486.317 653.01,484.69C653.37,484.28 653.72,483.87 654.06,483.45C656.039,481.018 657.733,478.367 659.11,475.55C660.032,473.691 660.814,471.766 661.45,469.79C665.29,458.16 665.07,443.65 660.79,426.41C661.946,426.187 663.053,425.761 664.06,425.15C667.2,423.26 669.38,419.51 670.06,414.93L671.14,415.22C674.969,413.437 678.379,410.868 681.15,407.68C681.699,407.031 682.213,406.353 682.69,405.65C687.58,398.45 687.62,389.81 684.45,382.52Z" style="fill:rgb(47,46,65);fill-rule:nonzero;"/>
    </g>
    <path d="M206.32,475.296L214.817,442.504L222.32,470.8L206.32,475.296Z" style="fill-opacity:0.2;fill-rule:nonzero;"/>
    <g transform="matrix(1,0,0,1,-311,-161)">
        <path d="M743.43,614.93C740.39,656.81 743.54,675.25 726.76,709.78C711.493,717.253 695.59,723.35 679.24,728C677.54,728.48 675.837,728.947 674.13,729.4C652.623,735.091 630.529,738.275 608.29,738.89C607.13,738.92 605.99,738.94 604.89,738.96C604.5,738.97 604.12,738.98 603.74,738.98C602.49,738.99 601.25,739 600,739C576.564,739.017 553.213,736.187 530.46,730.57C528.18,730.01 525.91,729.42 523.65,728.8C511.746,725.55 500.064,721.532 488.68,716.77C482.68,714.27 476.787,711.573 471,708.68C469.69,708.02 468.38,707.36 467.09,706.68C460.46,695.02 456.69,680.84 456.61,663.8C461.2,634.44 733.29,589.61 743.43,614.93Z" style="fill:rgb(47,46,65);fill-rule:nonzero;"/>
    </g>
    <g transform="matrix(1,0,0,1,-311,-161)">
        <path d="M743.422,622.102C743.577,619.509 743.751,616.831 743.953,614.042C733.813,588.722 461.723,633.552 457.133,662.912C457.146,665.604 457.261,668.216 457.455,670.767C468.57,641.789 727.059,599.181 743.422,622.102Z" style="fill-opacity:0.2;fill-rule:nonzero;"/>
    </g>
    <g transform="matrix(1,0,0,1,-311,-161)">
        <path d="M474.096,503.152C474.107,502.997 474.112,502.842 474.112,502.688C474.112,499.196 471.239,496.323 467.748,496.323C467.613,496.323 467.478,496.327 467.343,496.336C467.005,496.349 466.668,496.391 466.338,496.462L426.576,505.444C424.78,505.88 423.25,507.056 422.367,508.679C421.784,508.701 421.205,508.785 420.64,508.931C416.254,509.925 413.114,513.856 413.114,518.353C413.114,523.653 417.475,528.014 422.775,528.014C423.494,528.014 424.21,527.934 424.911,527.775C426.333,527.445 427.664,526.801 428.805,525.891L442.279,563.831C443.658,566.266 446.495,567.512 449.22,566.878L475.069,561.036C477.771,560.403 479.77,558.086 480,555.32L474.096,503.152ZM424.314,525.074C423.815,525.187 423.305,525.244 422.793,525.244C419.002,525.244 415.883,522.124 415.883,518.333C415.883,515.128 418.113,512.323 421.236,511.6C421.362,511.569 421.488,511.6 421.613,511.569C421.604,512.713 421.896,513.84 422.461,514.835L427.392,523.441C426.534,524.255 425.469,524.82 424.314,525.074Z" style="fill:rgb(47,46,65);fill-rule:nonzero;"/>
    </g>
    <g transform="matrix(1,0,0,1,-311,-161)">
        <path d="M467.343,496.336C467.72,501.361 459.114,507.14 447.587,509.433C437.003,511.6 427.518,510.093 424.848,506.135C425.385,505.817 425.967,505.584 426.576,505.444L466.338,496.462C466.668,496.391 467.005,496.349 467.343,496.336Z" style="fill:rgb(63,61,86);fill-rule:nonzero;"/>
    </g>
    <g transform="matrix(1,0,0,1,-311,-161)">
        <path d="M439.843,623.905L462.177,612.738L443.566,562.488L438.661,537.146C436.923,528.169 428.991,521.625 419.848,521.625C415.276,521.625 410.85,523.262 407.378,526.238C399.583,532.92 398.472,544.74 404.886,552.757L423.093,575.516L439.843,623.905Z" style="fill:rgb(221,156,105);fill-rule:nonzero;"/>
    </g>
    <g transform="matrix(1,0,0,1,-311,-161)">
        <path d="M462.177,603.433L432.399,618.322L454.997,689.131C458.294,699.461 466.784,707.336 477.333,709.847C490.436,712.967 504.141,707.2 511.07,695.65L570.995,592.936C579.772,578.309 575.211,559.081 560.8,549.954C555.739,546.749 549.871,545.047 543.881,545.047C531.846,545.047 520.812,551.919 515.504,562.719L478.928,640.656L462.177,603.433Z" style="fill:rgb(63,61,86);fill-rule:nonzero;"/>
    </g>
    <g transform="matrix(1,0,0,1,-311,-161)">
        <path d="M452.967,539.441C452.911,539.441 452.856,539.432 452.804,539.414L446.303,537.176C446.101,537.107 445.965,536.916 445.965,536.703C445.965,536.578 446.012,536.457 446.097,536.365L450.933,531.101C451.027,530.997 451.162,530.937 451.302,530.937C451.576,530.937 451.802,531.163 451.802,531.437C451.802,531.563 451.754,531.684 451.669,531.776L447.35,536.479L453.129,538.469C453.331,538.538 453.467,538.729 453.467,538.942C453.467,539.216 453.241,539.441 452.967,539.441C452.967,539.441 452.967,539.441 452.967,539.441Z" style="fill:rgb(141,158,201);fill-rule:nonzero;"/>
    </g>
    <g transform="matrix(1,0,0,1,-311,-161)">
        <path d="M461.878,537.617C461.878,537.617 461.878,537.617 461.878,537.617C461.604,537.617 461.378,537.391 461.378,537.117C461.378,536.982 461.433,536.852 461.531,536.758L465.925,532.509L460.022,530.076C459.835,529.999 459.712,529.816 459.712,529.614C459.712,529.34 459.937,529.114 460.211,529.114C460.277,529.114 460.342,529.127 460.403,529.152L467.012,531.876C467.199,531.953 467.322,532.136 467.322,532.338C467.322,532.473 467.267,532.603 467.169,532.697L462.226,537.477C462.133,537.567 462.008,537.617 461.878,537.617Z" style="fill:rgb(141,158,201);fill-rule:nonzero;"/>
    </g>
    <g transform="matrix(1,0,0,1,-311,-161)">
        <path d="M454.332,542.5C454.282,542.5 454.232,542.493 454.185,542.478C453.975,542.413 453.831,542.219 453.831,542C453.831,541.95 453.839,541.9 453.853,541.853L458.468,526.853C458.533,526.644 458.728,526.501 458.946,526.501C459.22,526.501 459.446,526.727 459.446,527.002C459.446,527.051 459.439,527.1 459.424,527.147L454.81,542.147C454.745,542.356 454.55,542.5 454.332,542.5Z" style="fill:rgb(141,158,201);fill-rule:nonzero;"/>
    </g>
</svg>
